<?xml version="1.0" encoding="utf-8"?>
<!-- Generator: Adobe Illustrator 25.0.1, SVG Export Plug-In . SVG Version: 6.00 Build 0)  -->
<svg version="1.1" id="圖層_1" xmlns="http://www.w3.org/2000/svg" xmlns:xlink="http://www.w3.org/1999/xlink" x="0px" y="0px"
	 viewBox="0 0 35.3 26.4" style="enable-background:new 0 0 35.3 26.4;" xml:space="preserve">
<style type="text/css">
	.st0{fill:#FFFFFF;}
</style>
<g>
	<path class="st0" d="M4.3,25.5c0,0.5,0.4,0.9,0.9,0.9h2.1c0.5,0,0.9-0.4,0.9-0.9v-3H4.3V25.5z"/>
	<path class="st0" d="M27.1,25.5c0,0.5,0.4,0.9,0.9,0.9h2.1c0.5,0,0.9-0.4,0.9-0.9v-3h-3.9V25.5z"/>
	<path class="st0" d="M33.6,11.6L33.6,11.6c-0.8,0-1.4-0.4-1.7-1.1l-2.5-6.1c-0.8-2.6-3.3-4.4-6-4.4H12.2C9.5,0,7.2,1.7,6.3,4.2
		c0,0,0,0.1,0,0.1l-2.9,6.3c-0.3,0.6-0.9,1.1-1.6,1.1c-1,0-1.7,0.8-1.7,1.7l0,6.2c0,1,0.8,1.7,1.7,1.7l31.8,0c1,0,1.7-0.8,1.7-1.7
		l0-6.2C35.3,12.4,34.6,11.6,33.6,11.6z M9.2,4.9c0.4-0.9,1.2-1.4,2.2-1.4l12.8,0c1,0,1.9,0.6,2.2,1.5L28,9.3l-20.7,0L9.2,4.9z
		 M6.2,17.1c-1,0-1.9-0.9-1.9-1.9c0-1,0.9-1.9,1.9-1.9s1.9,0.9,1.9,1.9C8.2,16.2,7.3,17.1,6.2,17.1z M29.1,17.1
		c-1,0-1.9-0.9-1.9-1.9c0-1,0.9-1.9,1.9-1.9c1,0,1.9,0.9,1.9,1.9C31,16.2,30.1,17.1,29.1,17.1z"/>
</g>
</svg>
