<?xml version="1.0" encoding="utf-8"?>
<!-- Generator: Adobe Illustrator 25.0.1, SVG Export Plug-In . SVG Version: 6.00 Build 0)  -->
<svg version="1.1" id="圖層_1" xmlns="http://www.w3.org/2000/svg" xmlns:xlink="http://www.w3.org/1999/xlink" x="0px" y="0px"
	 viewBox="0 0 17.6 20.1" style="enable-background:new 0 0 17.6 20.1;" xml:space="preserve">
<style type="text/css">
	.st0{fill:#FFFFFF;}
</style>
<g>
	<g>
		<path class="st0" d="M6.4,1.3h4.7v1.2h1.3v-2c0-0.3-0.2-0.5-0.5-0.5H5.6C5.4,0,5.2,0.2,5.2,0.5v2h1.3V1.3z"/>
		<path class="st0" d="M2.1,16.1h2v0V3.8h-2C0.9,3.8,0,4.7,0,5.9V14C0,15.2,0.9,16.1,2.1,16.1z"/>
		<polygon class="st0" points="5.4,16.1 5.4,16.1 12.5,16.1 12.5,16.1 12.5,3.8 5.4,3.8 		"/>
		<path class="st0" d="M15.5,3.8h-1.7v12.3v0h1.7c1.2,0,2.1-0.9,2.1-2.1V5.9C17.6,4.7,16.6,3.8,15.5,3.8z"/>
		<path class="st0" d="M17,20.1H0.5c-0.2,0-0.4-0.2-0.4-0.4v-1.2c0-0.2,0.2-0.4,0.4-0.4H17c0.2,0,0.4,0.2,0.4,0.4v1.2
			C17.4,20,17.2,20.1,17,20.1z"/>
	</g>
</g>
</svg>
