<?xml version="1.0" encoding="utf-8"?>
<!-- Generator: Adobe Illustrator 25.0.1, SVG Export Plug-In . SVG Version: 6.00 Build 0)  -->
<svg version="1.1" id="圖層_1" xmlns="http://www.w3.org/2000/svg" xmlns:xlink="http://www.w3.org/1999/xlink" x="0px" y="0px"
	 viewBox="0 0 25.4 32" style="enable-background:new 0 0 25.4 32;" xml:space="preserve">
<style type="text/css">
	.st0{fill:#FFFFFF;}
</style>
<g>
	<path class="st0" d="M19.3,0H6.1C2.7,0,0,2.7,0,6.1v15.3c0,3.4,2.7,6.1,6.1,6.1h13.3c3.4,0,6.1-2.7,6.1-6.1V6.1
		C25.4,2.7,22.7,0,19.3,0z M5,23c-1,0-1.8-0.8-1.8-1.8c0-1,0.8-1.8,1.8-1.8s1.8,0.8,1.8,1.8C6.7,22.2,6,23,5,23z M11.6,12.3
		c0,0.8-0.7,1.5-1.5,1.5H4.2c-0.8,0-1.5-0.7-1.5-1.5V8.5C2.7,7.7,3.3,7,4.1,7h6c0.8,0,1.5,0.7,1.5,1.5V12.3z M10.9,3.1
		c0-1,0.8-1.8,1.8-1.8c1,0,1.8,0.8,1.8,1.8c0,1-0.8,1.8-1.8,1.8C11.7,4.9,10.9,4.1,10.9,3.1z M20.5,23c-1,0-1.8-0.8-1.8-1.8
		c0-1,0.8-1.8,1.8-1.8c1,0,1.8,0.8,1.8,1.8C22.2,22.2,21.4,23,20.5,23z M22.8,12.3c0,0.8-0.7,1.5-1.5,1.5h-5.9
		c-0.8,0-1.5-0.7-1.5-1.5V8.5c0-0.8,0.7-1.5,1.5-1.5h6c0.8,0,1.5,0.7,1.5,1.5V12.3z"/>
	<rect x="7.1" y="29.6" class="st0" width="11.7" height="2.4"/>
</g>
</svg>
