<?xml version="1.0" encoding="utf-8"?>
<!-- Generator: Adobe Illustrator 25.0.1, SVG Export Plug-In . SVG Version: 6.00 Build 0)  -->
<svg version="1.1" id="圖層_1" xmlns="http://www.w3.org/2000/svg" xmlns:xlink="http://www.w3.org/1999/xlink" x="0px" y="0px"
	 viewBox="0 0 27.8 27.4" style="enable-background:new 0 0 27.8 27.4;" xml:space="preserve">
<style type="text/css">
	.st0{fill:#FFFFFF;}
</style>
<g>
	<path class="st0" d="M8.4,21.5L24.2,8.2c1-0.9,1.7-1.9,2.2-3.2l1.2-2.7c0.5-1.4-0.8-2.7-2.2-2.2l-2.7,1.2c-1.2,0.4-2.3,1.2-3.2,2.2
		l-13,15.6H1.3c-0.4,0-0.7,0.1-1,0.4l-0.2,0.2c-0.2,0.2-0.1,0.5,0.1,0.6l4.1,1.5c0,0.3,0.1,0.6,0.3,0.9l0.2,0.2L5,23.1
		c0.2,0.2,0.4,0.3,0.7,0.3l1.4,3.8c0.1,0.3,0.4,0.3,0.6,0.1L8,27.1c0.3-0.3,0.4-0.6,0.4-1V21.5z"/>
	<path class="st0" d="M15.9,6L3.8,4.1C3.3,4,2.9,4.1,2.5,4.5L2,5C1.8,5.2,1.9,5.5,2.1,5.6l10,4.8L15.9,6z"/>
	<path class="st0" d="M23.6,23.9l-1.9-12l-4.4,3.7l4.8,10c0.1,0.2,0.4,0.3,0.6,0.1l0.5-0.5C23.5,24.8,23.7,24.3,23.6,23.9z"/>
</g>
</svg>
